# xmcd
#
# Track frame offsets: 
#        150
#        13436
#        25681
#        38584
#        50575
#        62787
#        75926
#        87846
#        98086
#        109848
#        121748
#        134150
#        143542
#        153509
#        164979
#        176970
#        190496
#        204335
#        217358
#        230186
#        245964
#        260558
#        274460
#        287488
#        299367
#        311173
#        324252
#
# Disc length: 4497 seconds
#
# Revision: 2
# Processed by: cddbd v1.5.2PL0 Copyright (c) Steve Scherf et al.
# Submitted via: ExactAudioCopy v0.99pb4
#
DISCID=a9118f1b
DTITLE=Slim Gaillard - Laughing In Rhythm - Flat Foot Floogie
DYEAR=2003
DGENRE=Jazz
TTITLE0=There's No Two Ways About It
TTITLE1='Cause My Baby Says It's So
TTITLE2=The Flat Foot Floogie
TTITLE3=Chinatown, My Chinatown
TTITLE4=8, 9 And 10
TTITLE5=Ferdinand The Bull
TTITLE6=Tutti Frutti
TTITLE7=Look-A-There
TTITLE8=Jump Session
TTITLE9=Laughin' In Rhythm
TTITLE10=Vol Vist Du Gaily Star
TTITLE11=Dopey Joe
TTITLE12=Sweet Safronia
TTITLE13=It's Gettin' Kinda Chilly
TTITLE14=Buck Dance Rhythm
TTITLE15=That's A Bringer
TTITLE16=A-Well-A-Take-Em Joe (Crapshooter's Jive)
TTITLE17=Chicken Rhythm
TTITLE18=Swingin' In The Key Of C
TTITLE19=Boot-Ta-La-Za
TTITLE20=It's You, Only You
TTITLE21=Beatin' The Board
TTITLE22=Look Out
TTITLE23=Matzoh Balls
TTITLE24=Early In The Morninig
TTITLE25=Chittlin' Switch Blues
TTITLE26=Huh! Uh-Huh!
EXTD=YEAR: 2002
EXTT0=
EXTT1=
EXTT2=
EXTT3=
EXTT4=
EXTT5=
EXTT6=
EXTT7=
EXTT8=
EXTT9=
EXTT10=
EXTT11=
EXTT12=
EXTT13=
EXTT14=
EXTT15=
EXTT16=
EXTT17=
EXTT18=
EXTT19=
EXTT20=
EXTT21=
EXTT22=
EXTT23=
EXTT24=
EXTT25=
EXTT26=
PLAYORDER=
